<svg xmlns="http://www.w3.org/2000/svg" viewBox="844.8 422.5 19.471 21.26">
  <defs>
    <style>
      .cls-1 {
        fill: #8393ff;
      }
    </style>
  </defs>
  <path id="Path_23" data-name="Path 23" class="cls-1" d="M-763.2,315.428a25.752,25.752,0,0,1,1.327-2.589,13.059,13.059,0,0,1,1.412-1.9,10.743,10.743,0,0,1-1.2-2.546,6.6,6.6,0,0,1-.171-2.418,13.632,13.632,0,0,1,.406-1.969,6.105,6.105,0,0,1,.813-1.648,6.5,6.5,0,0,1,1.947-1.8,8.777,8.777,0,0,1,2.61-.856l5.884-1.134a9.818,9.818,0,0,0,2.931-1.091,8.977,8.977,0,0,0,2.225-2.076,12.682,12.682,0,0,1,.963,2.589,14.284,14.284,0,0,1,.321,2.846s-.016,1.2-.171,2.525a21.255,21.255,0,0,1-.556,2.76,12.8,12.8,0,0,1-1.091,2.525,18.688,18.688,0,0,1-1.712,2.418,12.964,12.964,0,0,1-2.332,1.8,12.29,12.29,0,0,1-2.482,1.027,14.242,14.242,0,0,1-2.1.193,10.007,10.007,0,0,1-1.883-.193,8.392,8.392,0,0,1-1.562-.535,9.762,9.762,0,0,1-1.476-.9l-1.519,3.787a3.2,3.2,0,0,1-1.712.385C-762.943,316.45-763.2,315.428-763.2,315.428Z" transform="translate(1608 127.1)"/>
</svg>
