<svg xmlns="http://www.w3.org/2000/svg" viewBox="846.2 387.2 18.884 18.816">
  <defs>
    <style>
      .cls-1 {
        fill: #8393ff;
      }
    </style>
  </defs>
  <path id="Path_22" data-name="Path 22" class="cls-1" d="M934.621,881.027l2.866-2.818-1.108-1.156a1.341,1.341,0,0,1,0-.434.709.709,0,0,1,.169-.313.684.684,0,0,1,.337-.217,1.432,1.432,0,0,1,.506,0l1.229,1.228,9.225-10.767,4.239-.65-.7,4.312-10.743,9.177,1.132,1.108a1.279,1.279,0,0,1,0,.482.97.97,0,0,1-.217.385,1.2,1.2,0,0,1-.434.169.841.841,0,0,1-.409-.072l-1.132-1.132-2.842,2.891a1.057,1.057,0,0,1,.385.385.632.632,0,0,1,.048.53.865.865,0,0,1-.241.409.918.918,0,0,1-.385.169.885.885,0,0,1-.409-.072l-2.915-2.963a1.033,1.033,0,0,1,0-.434.943.943,0,0,1,.217-.361.63.63,0,0,1,.361-.217.585.585,0,0,1,.458.072A1.1,1.1,0,0,1,934.621,881.027Z" transform="translate(-87 -478.7)"/>
</svg>
