<svg xmlns="http://www.w3.org/2000/svg" viewBox="844.275 301.302 17.825 23.604">
  <defs>
    <style>
      .cls-1 {
        fill: #8393ff;
      }
    </style>
  </defs>
  <g id="Group_70" data-name="Group 70" transform="translate(-41 -355)">
    <g id="Group_15" data-name="Group 15" transform="translate(885.275 656.302)">
      <path id="Path_10" data-name="Path 10" class="cls-1" d="M1077.95,823.5l-.414-4.374a2.463,2.463,0,0,1,.532-.591,1.366,1.366,0,0,1,1.537,0,2.468,2.468,0,0,1,.532.591l-.532,4.374a1.756,1.756,0,0,1,.532.355.3.3,0,0,1,0,.355s-.163.281-.3.473a2.33,2.33,0,0,1-.237.3h2.128a1.059,1.059,0,0,1,.355.3.846.846,0,0,1,.118.414.783.783,0,0,1-.118.414.61.61,0,0,1-.355.177h-5.969a.61.61,0,0,1-.355-.177.783.783,0,0,1-.118-.414.58.58,0,0,1,.059-.414,1.059,1.059,0,0,1,.414-.3h2.187a4.886,4.886,0,0,1-.414-.414,1.707,1.707,0,0,1-.236-.355.409.409,0,0,1,.118-.355A2.215,2.215,0,0,1,1077.95,823.5Z" transform="translate(-1075.275 -818.3)"/>
      <rect id="Rectangle_11" data-name="Rectangle 11" class="cls-1" width="5.022" height="8.37" transform="translate(0.962 7.533)"/>
      <path id="Path_11" data-name="Path 11" class="cls-1" d="M2.675,5.2,2.261.828A2.464,2.464,0,0,1,2.793.237a1.367,1.367,0,0,1,1.537,0,2.466,2.466,0,0,1,.532.591L4.329,5.2a1.753,1.753,0,0,1,.532.355.3.3,0,0,1,0,.355s-.163.281-.3.473a2.32,2.32,0,0,1-.237.3H6.457a1.058,1.058,0,0,1,.355.3.845.845,0,0,1,.118.414.783.783,0,0,1-.118.414.609.609,0,0,1-.355.177H.488A.609.609,0,0,1,.133,7.8a.783.783,0,0,1-.118-.414.58.58,0,0,1,.059-.414,1.058,1.058,0,0,1,.414-.3H2.675a4.895,4.895,0,0,1-.414-.414,1.709,1.709,0,0,1-.236-.355.409.409,0,0,1,.118-.355A2.211,2.211,0,0,1,2.675,5.2Z" transform="translate(6.93 23.604) rotate(180)"/>
    </g>
    <g id="Group_16" data-name="Group 16" transform="translate(896.17 656.302)">
      <path id="Path_10-2" data-name="Path 10" class="cls-1" d="M1077.95,823.5l-.414-4.374a2.463,2.463,0,0,1,.532-.591,1.366,1.366,0,0,1,1.537,0,2.468,2.468,0,0,1,.532.591l-.532,4.374a1.756,1.756,0,0,1,.532.355.3.3,0,0,1,0,.355s-.163.281-.3.473a2.33,2.33,0,0,1-.237.3h2.128a1.059,1.059,0,0,1,.355.3.846.846,0,0,1,.118.414.783.783,0,0,1-.118.414.61.61,0,0,1-.355.177h-5.969a.61.61,0,0,1-.355-.177.783.783,0,0,1-.118-.414.58.58,0,0,1,.059-.414,1.059,1.059,0,0,1,.414-.3h2.187a4.886,4.886,0,0,1-.414-.414,1.707,1.707,0,0,1-.236-.355.409.409,0,0,1,.118-.355A2.215,2.215,0,0,1,1077.95,823.5Z" transform="translate(-1075.275 -818.3)"/>
      <rect id="Rectangle_11-2" data-name="Rectangle 11" class="cls-1" width="5.022" height="8.37" transform="translate(0.962 7.533)"/>
      <path id="Path_11-2" data-name="Path 11" class="cls-1" d="M2.675,5.2,2.261.828A2.464,2.464,0,0,1,2.793.237a1.367,1.367,0,0,1,1.537,0,2.466,2.466,0,0,1,.532.591L4.329,5.2a1.753,1.753,0,0,1,.532.355.3.3,0,0,1,0,.355s-.163.281-.3.473a2.32,2.32,0,0,1-.237.3H6.457a1.058,1.058,0,0,1,.355.3.845.845,0,0,1,.118.414.783.783,0,0,1-.118.414.609.609,0,0,1-.355.177H.488A.609.609,0,0,1,.133,7.8a.783.783,0,0,1-.118-.414.58.58,0,0,1,.059-.414,1.058,1.058,0,0,1,.414-.3H2.675a4.895,4.895,0,0,1-.414-.414,1.709,1.709,0,0,1-.236-.355.409.409,0,0,1,.118-.355A2.211,2.211,0,0,1,2.675,5.2Z" transform="translate(6.93 23.604) rotate(180)"/>
    </g>
    <rect id="Rectangle_12" data-name="Rectangle 12" class="cls-1" width="7.263" height="7.263" transform="translate(890.995 664.41)"/>
  </g>
</svg>
