<svg xmlns="http://www.w3.org/2000/svg" viewBox="844.3 342.827 20.3 17.894">
  <defs>
    <style>
      .cls-1 {
        fill: #8393ff;
      }
    </style>
  </defs>
  <g id="Group_71" data-name="Group 71" transform="translate(-54.7 -248.173)">
    <path id="Path_8" data-name="Path 8" class="cls-1" d="M909.8,655.73H923.41a1.26,1.26,0,0,0,.652-.351,1.236,1.236,0,0,0,.251-.727,1.28,1.28,0,0,0-.251-.752,1.679,1.679,0,0,0-.652-.4H909.8a2.015,2.015,0,0,0-.576.451,1.148,1.148,0,0,0-.226.652,1.334,1.334,0,0,0,.226.727A1.408,1.408,0,0,0,909.8,655.73Z" transform="translate(-7.494 -46.836)"/>
    <path id="Path_9" data-name="Path 9" class="cls-1" d="M906.18,612.5l-1.88-6.742,1.278-.852,3.258,1.98,3.634-5.99h1.454l3.534,5.99,3.283-1.98,1.378.852-1.93,6.742Z" transform="translate(-3.972 -7.419)"/>
    <circle id="Ellipse_6" data-name="Ellipse 6" class="cls-1" cx="1.378" cy="1.378" r="1.378" transform="translate(907.772 591)"/>
    <circle id="Ellipse_7" data-name="Ellipse 7" class="cls-1" cx="1.378" cy="1.378" r="1.378" transform="translate(899 595.762)"/>
    <circle id="Ellipse_8" data-name="Ellipse 8" class="cls-1" cx="1.378" cy="1.378" r="1.378" transform="translate(916.543 595.762)"/>
  </g>
</svg>
