<svg xmlns="http://www.w3.org/2000/svg" viewBox="847 459.932 15.838 24.768">
  <defs>
    <style>
      .cls-1 {
        fill: #8393ff;
      }

      .cls-2 {
        fill: #fff;
      }
    </style>
  </defs>
  <g id="Group_72" data-name="Group 72" transform="translate(644 -1078.868)">
    <circle id="Ellipse_11" data-name="Ellipse 11" class="cls-1" cx="7.919" cy="7.919" r="7.919" transform="translate(203 1543.224)"/>
    <circle id="Ellipse_12" data-name="Ellipse 12" class="cls-2" cx="7.1" cy="7.1" r="7.1" transform="translate(203.819 1544.043)"/>
    <path id="Path_19" data-name="Path 19" class="cls-1" d="M211,1542.951l.683-3.823a.441.441,0,0,1,.137-.191,1.028,1.028,0,0,1,.273-.136h9.23a.691.691,0,0,1,.273.109.455.455,0,0,1,.137.219l.6,3.823a.367.367,0,0,1-.109.246.965.965,0,0,1-.328.164,1.078,1.078,0,0,1-.573-.191,4.21,4.21,0,0,0-1.693-.956,14.3,14.3,0,0,0-2.977-.464,9.253,9.253,0,0,0-2.54.355,8.747,8.747,0,0,0-2.157,1.065,1.484,1.484,0,0,1-.273.137,1.1,1.1,0,0,1-.273.055.483.483,0,0,1-.41-.41Z" transform="translate(-5.815)"/>
    <path id="Path_20" data-name="Path 20" class="cls-1" d="M0,4.151.683.328A.441.441,0,0,1,.819.137,1.025,1.025,0,0,1,1.092,0h9.23A.689.689,0,0,1,10.6.109a.454.454,0,0,1,.137.218l.6,3.823a.367.367,0,0,1-.109.246.966.966,0,0,1-.328.164,1.079,1.079,0,0,1-.573-.191,4.21,4.21,0,0,0-1.693-.956,14.309,14.309,0,0,0-2.977-.464,9.254,9.254,0,0,0-2.54.355A8.745,8.745,0,0,0,.956,4.369a1.492,1.492,0,0,1-.273.137A1.1,1.1,0,0,1,.41,4.56a.612.612,0,0,1-.273-.137A.612.612,0,0,1,0,4.151Z" transform="translate(216.517 1563.568) rotate(180)"/>
  </g>
</svg>
